<?xml version="1.0" standalone="no"?>
<!DOCTYPE svg PUBLIC "-//W3C//DTD SVG 20010904//EN"
 "http://www.w3.org/TR/2001/REC-SVG-20010904/DTD/svg10.dtd">
<svg version="1.0" xmlns="http://www.w3.org/2000/svg"
 width="321.000000pt" height="306.000000pt" viewBox="0 0 321.000000 306.000000"
 preserveAspectRatio="xMidYMid meet">

<g transform="translate(0.000000,306.000000) scale(0.100000,-0.100000)"
fill="#000000" stroke="none">
<path d="M1751 2914 c0 -109 3 -134 11 -116 17 34 41 22 55 -28 16 -54 13 -68
-9 -46 -21 20 -44 21 -52 0 -3 -9 -6 -128 -6 -265 l0 -249 163 -1 c243 -1 321
4 400 27 16 5 17 -6 17 -131 0 -105 -3 -136 -12 -133 -7 3 -16 26 -19 53 -4
37 -12 54 -37 76 -32 29 -32 29 -172 29 l-140 0 0 -319 0 -319 68 -4 c186 -11
331 -9 366 6 37 16 66 59 66 101 0 14 5 25 10 25 6 0 10 -63 10 -170 0 -107
-4 -170 -10 -170 -5 0 -10 11 -10 24 0 42 -18 75 -52 96 -30 18 -51 20 -241
20 l-207 0 2 -312 3 -313 285 0 c271 0 287 1 332 22 61 28 128 98 168 178 18
36 37 65 41 65 13 0 13 -3 -50 -175 l-57 -160 -329 -5 -329 -5 97 -95 c153
-153 303 -222 445 -206 40 5 52 3 52 -8 0 -18 -104 -38 -197 -38 -170 1 -318
79 -503 266 -76 78 -88 86 -122 86 l-38 0 0 -361 0 -362 78 7 c520 46 999 379
1228 853 105 218 149 415 149 668 0 322 -79 586 -256 855 -80 121 -280 323
-399 402 -229 152 -475 242 -722 264 l-78 7 1 -139z m213 -130 c3 -9 6 -25 6
-37 1 -20 2 -20 18 6 14 23 42 38 42 22 0 -19 -56 -85 -71 -85 -16 0 -19 8
-19 55 0 53 11 72 24 39z m331 -116 c14 -6 25 -15 25 -20 0 -11 -7 -10 -31 2
-13 8 -19 7 -19 0 0 -6 7 -13 15 -16 25 -10 17 -27 -10 -20 -29 7 -32 -1 -8
-20 25 -17 10 -28 -19 -13 -12 6 -24 13 -26 14 -4 4 37 85 43 85 2 0 16 -5 30
-12z m145 -87 c0 -4 -9 -20 -21 -35 -20 -26 -20 -28 -4 -46 15 -17 16 -20 3
-20 -8 0 -22 8 -31 18 -15 17 -15 21 9 55 23 35 44 48 44 28z m148 -123 c15
-15 16 -38 2 -38 -5 0 -10 7 -10 15 0 8 -4 15 -9 15 -6 0 -7 -16 -4 -35 5 -32
4 -35 -20 -35 -31 0 -56 35 -38 53 9 9 13 6 17 -11 4 -12 10 -22 15 -22 11 0
11 11 -1 30 -18 28 23 53 48 28z m142 -162 c0 -7 -14 -23 -31 -35 l-31 -23
-25 24 -25 23 39 33 38 33 17 -21 c10 -12 18 -28 18 -34z m110 -157 c0 -15
-17 -10 -24 6 -10 27 -27 17 -21 -12 6 -26 5 -26 -8 -10 -20 24 -41 23 -27 -2
12 -24 13 -31 2 -31 -9 0 -35 50 -30 55 2 2 19 12 38 24 l35 21 18 -21 c9 -12
17 -25 17 -30z m66 -134 c9 -37 -2 -58 -27 -52 -15 4 -23 0 -26 -14 -3 -10 -9
-19 -14 -19 -12 0 -11 27 1 50 8 15 6 17 -10 13 -34 -9 -22 11 18 29 50 22 51
22 58 -7z m58 -181 c18 -17 21 -50 7 -59 -5 -3 -11 7 -13 22 -2 22 -8 28 -28
28 -18 0 -26 -6 -28 -22 -4 -24 13 -32 21 -10 3 8 7 6 12 -6 9 -21 8 -22 -22
-31 -19 -6 -23 -2 -29 29 -7 41 7 65 42 65 12 0 30 -7 38 -16z"/>
<path d="M2686 2312 c-3 -6 -1 -14 5 -17 15 -10 25 3 12 16 -7 7 -13 7 -17 1z"/>
<path d="M2652 2281 c2 -7 7 -12 11 -12 12 1 9 15 -3 20 -7 2 -11 -2 -8 -8z"/>
<path d="M2870 1991 c0 -6 5 -13 10 -16 6 -3 10 1 10 9 0 9 -4 16 -10 16 -5 0
-10 -4 -10 -9z"/>
<path d="M1750 1588 l0 -553 25 -30 24 -30 1 550 c0 531 -1 551 -20 583 -11
17 -22 32 -25 32 -3 0 -5 -249 -5 -552z"/>
</g>
</svg>
